<?xml version="1.0" encoding="utf-8"?>
<!-- Generator: Adobe Illustrator 16.0.0, SVG Export Plug-In . SVG Version: 6.00 Build 0)  -->
<!DOCTYPE svg PUBLIC "-//W3C//DTD SVG 1.1//EN" "http://www.w3.org/Graphics/SVG/1.1/DTD/svg11.dtd">
<svg version="1.1" id="Layer_1" xmlns="http://www.w3.org/2000/svg" xmlns:xlink="http://www.w3.org/1999/xlink" x="0px" y="0px"
	 width="144px" height="148px" viewBox="-21.5 -23.5 144 148" enable-background="new -21.5 -23.5 144 148" xml:space="preserve">
<circle fill="#E5E5E5" cx="50.5" cy="49.999" r="68"/>
<path fill="#003B5C" d="M35.787,30.509v35.293c-2.355-0.958-5.166-1.286-8.086-0.704c-6.627,1.327-11.149,6.652-10.098,11.9
	c1.048,5.246,7.271,8.426,13.901,7.098c5.972-1.193,10.194-5.643,10.206-10.354h0.041V43.123l26.835-10.318v23.197
	c-2.355-0.957-5.166-1.287-8.086-0.704c-6.627,1.327-11.148,6.653-10.098,11.9c1.048,5.247,7.271,8.427,13.899,7.099
	c5.605-1.121,9.669-5.115,10.156-9.498h0.09V15.601L35.787,30.509z"/>
</svg>
